<svg version="1.1" xmlns="http://www.w3.org/2000/svg" width="180px" height="146px" transform="rotate(0) scale(1, 1)">
<path d="M0 0 C8.16891359 6.09426887 13.63708859 14.91055978 15.75 24.875 C16.92908893 36.79960046 15.74817691 47.85424139 8.4375 57.75 C0.91283893 66.60348419 -7.55648116 72.37101044 -19.25 73.875 C-25.67165147 74.30430261 -30.02990808 73.94836397 -36.25 71.875 C-36.25 62.305 -36.25 52.735 -36.25 42.875 C-32.62 44.525 -28.99 46.175 -25.25 47.875 C-25.25 53.485 -25.25 59.095 -25.25 64.875 C-14.26664007 62.47633519 -4.61104618 59.75492279 1.75 49.875 C6.33505018 41.77617304 7.24741035 33.15703512 5.08984375 24.10546875 C1.92206937 15.17810459 -3.77976522 8.95326119 -12.25 4.875 C-19.04338641 1.68083535 -26.86461004 1.87313937 -34.10546875 3.52734375 C-42.28311204 6.48143815 -48.1972642 11.32144254 -52.1875 19.0625 C-54.43733485 23.90536484 -55.40006591 27.904412 -55.4375 33.25 C-55.45876953 34.62285156 -55.45876953 34.62285156 -55.48046875 36.0234375 C-55.37118496 38.91987877 -55.37118496 38.91987877 -54.24609375 41.671875 C-52.9659143 45.78853049 -53.03074679 49.47235441 -53.125 53.75 C-53.13402344 54.53375 -53.14304687 55.3175 -53.15234375 56.125 C-53.17571937 58.04180055 -53.21158347 59.95844191 -53.25 61.875 C-56.92113472 58.47857604 -59.32064846 55.37134633 -61.5 50.875 C-62.00015625 49.864375 -62.5003125 48.85375 -63.015625 47.8125 C-67.19230559 37.87305757 -65.94183241 26.77889222 -62.50390625 16.8125 C-58.18630716 6.69775073 -49.41497949 -1.32210305 -39.29296875 -5.43359375 C-25.81735067 -9.99417578 -11.79072786 -7.47747809 0 0 Z " fill="#dcbb87" transform="translate(114.25,7.125)"/>
<path d="M0 0 C3.3 0 6.6 0 10 0 C10 11.88 10 23.76 10 36 C2.16913889 33.38971296 2.16913889 33.38971296 0 31 C-0.45410156 27.8137207 -0.45410156 27.8137207 -0.390625 23.92578125 C-0.38496521 23.2419487 -0.37930542 22.55811615 -0.37347412 21.8535614 C-0.35110816 19.67249101 -0.30091765 17.49307247 -0.25 15.3125 C-0.229935 13.83270605 -0.21168422 12.3528863 -0.1953125 10.87304688 C-0.15124474 7.2481624 -0.08221822 3.62424244 0 0 Z " fill="#dcbb87" transform="translate(65,42)"/>
<path d="M0 0 C2.3925 -0.0825 4.785 -0.165 7.25 -0.25 C7.99668945 -0.28641602 8.74337891 -0.32283203 9.51269531 -0.36035156 C12.91775078 -0.41713301 14.70088648 -0.22172383 17.4609375 1.82421875 C19.51663107 4.73036422 19.445239 6.5122945 19 10 C18.01 11.485 18.01 11.485 17 13 C16.34 13 15.68 13 15 13 C15.66 13.928125 16.32 14.85625 17 15.8125 C19 19 19 19 19 22 C16.25 22.375 16.25 22.375 13 22 C10.8125 19.0625 10.8125 19.0625 9 16 C8.01 15.67 7.02 15.34 6 15 C6 17.31 6 19.62 6 22 C4.02 22 2.04 22 0 22 C0 14.74 0 7.48 0 0 Z M6 5 C6 6.65 6 8.3 6 10 C7.98 10 9.96 10 12 10 C12.33 8.35 12.66 6.7 13 5 C10.69 5 8.38 5 6 5 Z " fill="#dcbb87" transform="translate(26,109)"/>
<path d="M0 0 C1.16015625 0.11794922 1.16015625 0.11794922 2.34375 0.23828125 C4.5 0.6875 4.5 0.6875 7.5 2.6875 C6.84 4.0075 6.18 5.3275 5.5 6.6875 C2.5 6.6875 2.5 6.6875 0.0625 5.9375 C-2.62320452 5.39861688 -2.62320452 5.39861688 -4.875 7.3125 C-6.77014232 9.56990459 -6.77014232 9.56990459 -6.375 12.3125 C-5.63532087 14.83155125 -5.63532087 14.83155125 -3.5 16.6875 C-1.27871445 16.71058597 -1.27871445 16.71058597 1.125 16.3125 C1.94226562 16.20164062 2.75953125 16.09078125 3.6015625 15.9765625 C4.22804688 15.88117188 4.85453125 15.78578125 5.5 15.6875 C6.16 17.0075 6.82 18.3275 7.5 19.6875 C3.77579001 22.48065749 0.96171038 23.1646842 -3.5703125 22.9765625 C-6.45761881 22.54405103 -8.26072509 21.53160875 -10.5 19.6875 C-13.0309442 15.48416511 -13.32885582 11.47828664 -12.5 6.6875 C-9.59128277 1.29518575 -6.01623558 -0.67181297 0 0 Z " fill="#dcbb87" transform="translate(12.5,108.3125)"/>
<path d="M0 0 C1.2065625 0.0309375 1.2065625 0.0309375 2.4375 0.0625 C3.94335523 3.51831315 5.44118289 6.97754753 6.9375 10.4375 C7.36675781 11.42234375 7.79601562 12.4071875 8.23828125 13.421875 C8.84736328 14.83339844 8.84736328 14.83339844 9.46875 16.2734375 C9.84580078 17.14274902 10.22285156 18.01206055 10.61132812 18.90771484 C11.4375 21.0625 11.4375 21.0625 11.4375 23.0625 C9.4575 23.0625 7.4775 23.0625 5.4375 23.0625 C4.59985732 21.10600603 3.76750941 19.14724444 2.9375 17.1875 C2.4734375 16.09695312 2.009375 15.00640625 1.53125 13.8828125 C0.4375 11.0625 0.4375 11.0625 0.4375 9.0625 C-0.2225 9.0625 -0.8825 9.0625 -1.5625 9.0625 C-1.68625 10.0215625 -1.68625 10.0215625 -1.8125 11 C-2.85770372 15.26791517 -4.70341826 19.09357667 -6.5625 23.0625 C-8.2125 23.0625 -9.8625 23.0625 -11.5625 23.0625 C-10.96527975 17.79534919 -9.22509825 13.52248089 -7.0625 8.75 C-6.58103516 7.65848633 -6.58103516 7.65848633 -6.08984375 6.54492188 C-3.20908002 0.07827024 -3.20908002 0.07827024 0 0 Z " fill="#dcbb87" transform="translate(85.5625,107.9375)"/>
<path d="M0 0 C1.98 0 3.96 0 6 0 C7.65 3.96 9.3 7.92 11 12 C11.639375 10.205625 12.27875 8.41125 12.9375 6.5625 C14.875 1.125 14.875 1.125 16 0 C17.99958364 -0.04080783 20.00045254 -0.04254356 22 0 C20.6918584 3.48082122 19.37776167 6.95936357 18.0625 10.4375 C17.68931641 11.43072266 17.31613281 12.42394531 16.93164062 13.44726562 C16.57392578 14.39150391 16.21621094 15.33574219 15.84765625 16.30859375 C15.3527771 17.62041626 15.3527771 17.62041626 14.84790039 18.95874023 C14 21 14 21 13 22 C11.33382885 22.04063832 9.66611905 22.042721 8 22 C6.65791246 18.89954577 5.32786246 15.79407011 4 12.6875 C3.6184375 11.80642578 3.236875 10.92535156 2.84375 10.01757812 C2.4828125 9.17001953 2.121875 8.32246094 1.75 7.44921875 C1.41484375 6.66893311 1.0796875 5.88864746 0.734375 5.0847168 C0 3 0 3 0 0 Z " fill="#dcbb87" transform="translate(135,109)"/>
<path d="M0 0 C4.95 0 9.9 0 15 0 C15 1.65 15 3.3 15 5 C11.7 5 8.4 5 5 5 C5 6.32 5 7.64 5 9 C8.96 9 12.92 9 17 9 C17 10.65 17 12.3 17 14 C11.39 14 5.78 14 0 14 C0 9.38 0 4.76 0 0 Z " fill="#dcbb87" transform="translate(163,117)"/>
<path d="M0 0 C4.95 0 9.9 0 15 0 C15 1.65 15 3.3 15 5 C11.7 5 8.4 5 5 5 C5 6.32 5 7.64 5 9 C8.96 9 12.92 9 17 9 C17 10.65 17 12.3 17 14 C11.39 14 5.78 14 0 14 C0 9.38 0 4.76 0 0 Z " fill="#dcbb87" transform="translate(52,117)"/>
<path d="M0 0 C6.27 0 12.54 0 19 0 C19 1.65 19 3.3 19 5 C16.69 5 14.38 5 12 5 C12 10.61 12 16.22 12 22 C10.35 22 8.7 22 7 22 C7 16.39 7 10.78 7 5 C4.69 5 2.38 5 0 5 C0 3.35 0 1.7 0 0 Z " fill="#dcbb87" transform="translate(98,109)"/>
<path d="M0 0 C0 3.63 0 7.26 0 11 C-7.5 14 -7.5 14 -12 14 C-14.75 11.5 -14.75 11.5 -17 9 C-15.24797843 4.71428569 -13.09349407 3.69458437 -9.03515625 1.81640625 C-6.0156182 0.60511363 -3.24439009 0 0 0 Z " fill="#dcbb87" transform="translate(89,15)"/>
<path d="M0 0 C11.35145631 1.8407767 11.35145631 1.8407767 16 6 C16 10 16 10 13.5 12.75 C12.675 13.4925 11.85 14.235 11 15 C10.2265625 14.566875 10.2265625 14.566875 9.4375 14.125 C6.37643275 12.71219973 3.25055082 11.8751483 0 11 C0 7.37 0 3.74 0 0 Z " fill="#dcbb87" transform="translate(90,15)"/>
<path d="M0 0 C3.30901116 1.0269345 4.0219638 2.03922107 5.75 5.125 C7.31997664 9.15602111 7.22556434 12.71427756 7 17 C3.7 17 0.4 17 -3 17 C-3.99 13.37 -4.98 9.74 -6 6 C-4.02 4.02 -2.04 2.04 0 0 Z " fill="#dcbb87" transform="translate(107,24)"/>
<path d="M0 0 C3.66240092 1.56960039 4.93903646 2.93903646 8 6 C7.01 9.63 6.02 13.26 5 17 C1.7 17 -1.6 17 -5 17 C-5.41628689 10.20064747 -3.75173625 5.62760438 0 0 Z " fill="#dcbb87" transform="translate(70,24)"/>
<path d="M0 0 C3.3 0 6.6 0 10 0 C9.64455443 6.63498399 7.86904957 10.63187218 4 16 C0.67240077 14.44805246 -1.48580485 12.69378051 -4 10 C-2.66666667 6.66666667 -1.33333333 3.33333333 0 0 Z " fill="#dcbb87" transform="translate(104,42)"/>
<path d="M0 0 C2.84935239 1.51965461 4.75903575 3.59015183 6.875 6 C6.875 6.66 6.875 7.32 6.875 8 C1.38800225 11.61908362 -2.5634813 12.59621423 -9.125 13 C-9.125 9.7 -9.125 6.4 -9.125 3 C-2.885 0 -2.885 0 0 0 Z " fill="#dcbb87" transform="translate(99.125,52)"/>
<path d="M0 0 C1.98 0 3.96 0 6 0 C6 7.26 6 14.52 6 22 C4.02 22 2.04 22 0 22 C0 14.74 0 7.48 0 0 Z " fill="#dcbb87" transform="translate(123,109)"/>
<path d="M0 0 C5.61 0 11.22 0 17 0 C17 1.65 17 3.3 17 5 C11.39 5 5.78 5 0 5 C0 3.35 0 1.7 0 0 Z " fill="#dcbb87" transform="translate(52,109)"/>
<path d="M0 0 C5.28 0 10.56 0 16 0 C16 1.65 16 3.3 16 5 C10.72 5 5.44 5 0 5 C0 3.35 0 1.7 0 0 Z " fill="#dcbb87" transform="translate(163,109)"/>
<path d="M0 0 C1.32 0.33 2.64 0.66 4 1 C5.32 0.67 6.64 0.34 8 0 C8 2.97 8 5.94 8 9 C6.68 8.34 5.36 7.68 4 7 C3.67 7.66 3.34 8.32 3 9 C2.01 9 1.02 9 0 9 C0 6.03 0 3.06 0 0 Z " fill="#dcbb87" transform="translate(145,137)"/>
<path d="M0 0 C0.78375 0.04125 1.5675 0.0825 2.375 0.125 C2.375 1.115 2.375 2.105 2.375 3.125 C1.055 3.125 -0.265 3.125 -1.625 3.125 C0.025 3.455 1.675 3.785 3.375 4.125 C3.045 5.775 2.715 7.425 2.375 9.125 C0 9.25 0 9.25 -2.625 9.125 C-4.625 7.125 -4.625 7.125 -4.875 4.625 C-4.51649553 1.03995533 -3.59522993 0.17120143 0 0 Z " fill="#dcbb87" transform="translate(123.625,136.875)"/>
<path d="M0 0 C2.375 0.75 2.375 0.75 3.375 1.75 C3.5625 4.1875 3.5625 4.1875 3.375 6.75 C2.715 7.41 2.055 8.07 1.375 8.75 C-1.75 8.375 -1.75 8.375 -4.625 7.75 C-5.3125 5.4375 -5.3125 5.4375 -5.625 2.75 C-3.9659358 -0.015107 -3.22812218 -0.30744021 0 0 Z M-2.625 2.75 C-2.625 3.74 -2.625 4.73 -2.625 5.75 C-1.305 5.42 0.015 5.09 1.375 4.75 C1.045 4.09 0.715 3.43 0.375 2.75 C-0.615 2.75 -1.605 2.75 -2.625 2.75 Z " fill="#dcbb87" transform="translate(43.625,137.25)"/>
<path d="M0 0 C1 1 1 1 1.1875 3.4375 C1 6 1 6 -1 8 C-4.125 7.625 -4.125 7.625 -7 7 C-7.93423645 3.98968256 -8.04449911 3.13349732 -7 0 C-4.31633121 -1.3418344 -2.84719317 -0.73004953 0 0 Z M-5 2 C-5 2.99 -5 3.98 -5 5 C-3.68 4.67 -2.36 4.34 -1 4 C-1.33 3.34 -1.66 2.68 -2 2 C-2.99 2 -3.98 2 -5 2 Z " fill="#dcbb87" transform="translate(113,138)"/>
<path d="M0 0 C0.99 0 1.98 0 3 0 C3 1.98 3 3.96 3 6 C3.66 6 4.32 6 5 6 C5 4.02 5 2.04 5 0 C5.99 0 6.98 0 8 0 C8.25 5.625 8.25 5.625 6 9 C1.125 8.125 1.125 8.125 0 7 C-0.04092937 4.66702567 -0.04241723 2.33294775 0 0 Z " fill="#dcbb87" transform="translate(52,137)"/>
<path d="M0 0 C2.31 0.33 4.62 0.66 7 1 C7 3.64 7 6.28 7 9 C6.01 9 5.02 9 4 9 C3.67 8.34 3.34 7.68 3 7 C2.67 7.66 2.34 8.32 2 9 C1.34 9 0.68 9 0 9 C0 6.03 0 3.06 0 0 Z " fill="#dcbb87" transform="translate(65,137)"/>
<path d="M0 0 C1.67542976 0.28604898 3.34385343 0.61781233 5 1 C5 3.83967231 4.59732819 6.23735711 4 9 C1.03 8.505 1.03 8.505 -2 8 C-1.125 1.125 -1.125 1.125 0 0 Z " fill="#dcbb87" transform="translate(85,137)"/>
<path d="M0 0 C3 1 3 1 4.1875 3.375 C5 6 5 6 5 9 C4.34 9 3.68 9 3 9 C3 8.34 3 7.68 3 7 C1.02 7.66 -0.96 8.32 -3 9 C-2.44271087 5.65626525 -1.64826111 2.96687001 0 0 Z " fill="#dcbb87" transform="translate(135,137)"/>
<path d="M0 0 C0.7425 0.185625 1.485 0.37125 2.25 0.5625 C5.22840916 1.22052711 5.22840916 1.22052711 9 0 C8.01 2.97 7.02 5.94 6 9 C5.01 9 4.02 9 3 9 C2 6 1 3 0 0 Z " fill="#dcbb87" transform="translate(26,137)"/>
<path d="M0 0 C0.99 0 1.98 0 3 0 C3 1.98 3 3.96 3 6 C3.99 6 4.98 6 6 6 C6 6.99 6 7.98 6 9 C4.02 9 2.04 9 0 9 C0 6.03 0 3.06 0 0 Z " fill="#dcbb87" transform="translate(95,137)"/>
</svg>