<svg version="1.1" xmlns="http://www.w3.org/2000/svg" width="180px" height="136px" transform="rotate(0) scale(1, 1)">
<path d="M0 0 C2.48340903 -0.26727014 4.71472068 -0.34866334 7.1953125 -0.29296875 C8.25647781 -0.28660149 8.25647781 -0.28660149 9.33908081 -0.28010559 C11.60143905 -0.26329547 13.86291048 -0.22564128 16.125 -0.1875 C17.65753923 -0.17245607 19.1900924 -0.15876716 20.72265625 -0.14648438 C24.48211318 -0.11338462 28.24090618 -0.06158825 32 0 C30.28611391 2.92756348 28.55119246 5.71802216 26.44140625 8.375 C25.97283203 8.96796875 25.50425781 9.5609375 25.02148438 10.171875 C24.54001953 10.77515625 24.05855469 11.3784375 23.5625 12 C23.08490234 12.60328125 22.60730469 13.2065625 22.11523438 13.828125 C21.17783655 15.01112362 20.23107512 16.18677212 19.27441406 17.35424805 C17.82560332 19.15207162 17.82560332 19.15207162 16.26953125 21.95703125 C13.57190882 24.38535575 12.99826153 24.23831908 9.5078125 24.07421875 C8.64470459 24.00928223 7.78159668 23.9443457 6.89233398 23.87744141 C1.28430692 23.49252345 -4.42388436 23.14909093 -9.15771484 26.55029297 C-13.23641653 30.75785045 -16.33679343 35.64787646 -19.43994141 40.59619141 C-22.21672649 44.87478701 -25.49865908 48.74152059 -28.78833008 52.6315918 C-31.24302726 55.58806681 -33.24715376 58.31388645 -34.84375 61.8203125 C-36.86231038 65.85956818 -38.77301602 69.10242644 -43 71 C-53.54492825 72.62785703 -64.40617691 71.78648572 -75 71 C-71.16049794 65.0547145 -67.09757084 59.42054055 -62.625 53.9375 C-62.07972656 53.26267578 -61.53445312 52.58785156 -60.97265625 51.89257812 C-59.65185218 50.25895204 -58.32642966 48.62906168 -57 47 C-58.56662218 41.85110164 -61.79099516 38.29640337 -65.1875 34.25 C-66.36259371 32.82733029 -67.53707706 31.40415621 -68.7109375 29.98046875 C-69.27651367 29.29774902 -69.84208984 28.6150293 -70.42480469 27.91162109 C-72.42164529 25.48830089 -74.37729535 23.0352615 -76.3125 20.5625 C-77.11107422 19.54349609 -77.11107422 19.54349609 -77.92578125 18.50390625 C-79 17 -79 17 -79 16 C-74.55275933 15.82619013 -70.10734521 15.69958797 -65.65771484 15.61547852 C-64.14629666 15.58040068 -62.63511393 15.53272155 -61.12451172 15.47192383 C-48.58601631 14.98013709 -48.58601631 14.98013709 -44.63769531 17.51904297 C-42.51576051 19.92477564 -41 21.72629358 -41 25 C-37.51978572 21.6616614 -37.51978572 21.6616614 -34.61547852 17.83984375 C-33 16 -33 16 -30.89038086 15.64453125 C-30.08995361 15.69996094 -29.28952637 15.75539063 -28.46484375 15.8125 C-27.57708252 15.84230957 -26.68932129 15.87211914 -25.7746582 15.90283203 C-24.37026489 15.95093018 -24.37026489 15.95093018 -22.9375 16 C-15.0821139 16.09371762 -15.0821139 16.09371762 -8.4609375 12.3828125 C-5.90791923 9.50398047 -3.90567506 6.34058953 -2 3 C-1.34 2.01 -0.68 1.02 0 0 Z M1.03125 13.37109375 C-0.08915124 14.81950118 -0.08915124 14.81950118 0 16 C3.10166416 16.42571861 5.91590203 16.60856783 9 16 C11.26930834 13.97938299 12.69593324 11.7326424 14 9 C14 8.67 14 8.34 14 8 C7.34707028 7.19706021 5.09063404 8.02695785 1.03125 13.37109375 Z M-61 24 C-56.30257468 31.56170904 -50.77414866 38.25588566 -45 45 C-47.88521271 50.52999103 -51.414831 55.15806227 -55.390625 59.9609375 C-57.1032578 61.69788245 -57.1032578 61.69788245 -57 63 C-53.8704331 63.50296611 -52.02687249 63.71097523 -49 63 C-45.72933949 60.52118362 -43.4566829 57.26046337 -41 54 C-39.9750031 52.66716463 -38.94887877 51.33519585 -37.921875 50.00390625 C-35.67096744 47.07673484 -33.43729831 44.13727365 -31.2109375 41.19140625 C-27.78086525 36.6762694 -24.18518407 32.32369042 -20.51171875 28.00390625 C-18.79925382 26.15225562 -18.79925382 26.15225562 -19 24 C-22.03610682 23.60398607 -24.05854301 23.37081134 -27 24 C-29.68987127 26.11893579 -31.53406733 28.71660044 -33.5 31.5 C-34.03625 32.21542969 -34.5725 32.93085937 -35.125 33.66796875 C-36.44046012 35.4297457 -37.72981534 37.20545053 -39 39 C-42.37455276 35.7709021 -45.09436433 32.51774376 -47.75 28.6875 C-50.48574797 25.06503092 -50.48574797 25.06503092 -54.515625 23.35546875 C-56.76162965 23.37312602 -58.80367391 23.54243206 -61 24 Z " fill="#dcbb87" transform="translate(126,0)"/>
<path d="M0 0 C13.03275333 -0.60900716 13.03275333 -0.60900716 17.375 2.125 C19.26842446 5.47490481 19.65814325 7.21567631 19 11 C17.5 12.875 17.5 12.875 16 14 C16.433125 14.86625 16.433125 14.86625 16.875 15.75 C17.91666667 17.83333333 18.95833333 19.91666667 20 22 C16.75 22.3125 16.75 22.3125 13 22 C10.5625 19.625 10.5625 19.625 9 17 C9 16.34 9 15.68 9 15 C8.01 15 7.02 15 6 15 C6 17.31 6 19.62 6 22 C4.02 22 2.04 22 0 22 C0 14.74 0 7.48 0 0 Z M6 5 C6 6.98 6 8.96 6 11 C9.465 10.505 9.465 10.505 13 10 C12.67 8.35 12.34 6.7 12 5 C10.02 5 8.04 5 6 5 Z " fill="#dcbb87" transform="translate(26,99)"/>
<path d="M0 0 C2.5625 2 2.5625 2 4 4 C3.01 5.485 3.01 5.485 2 7 C1.37351562 6.9278125 0.74703125 6.855625 0.1015625 6.78125 C-0.71570312 6.6884375 -1.53296875 6.595625 -2.375 6.5 C-3.18710938 6.4071875 -3.99921875 6.314375 -4.8359375 6.21875 C-6.96912825 5.96647649 -6.96912825 5.96647649 -9 6 C-10.0089034 10.23646767 -10.0089034 10.23646767 -9.0625 14.375 C-8.711875 14.91125 -8.36125 15.4475 -8 16 C-4.4780279 16.08004482 -1.38018531 16.04005702 2 15 C2.66 16.32 3.32 17.64 4 19 C2.01686847 21.85075158 0.66160245 22.07766501 -2.8125 22.875 C-6.96399175 23.24893951 -9.5014394 22.35949436 -13 20 C-16.41401526 16.2356204 -16.56058657 13.34459426 -16.4296875 8.4140625 C-15.77649986 4.74433559 -13.92448816 3.15855078 -11 1 C-7.55789151 -0.72105424 -3.76366353 -0.51474617 0 0 Z " fill="#dcbb87" transform="translate(16,99)"/>
<path d="M0 0 C1.98 0 3.96 0 6 0 C7.65 3.96 9.3 7.92 11 12 C12.65 8.04 14.3 4.08 16 0 C17.98 0 19.96 0 22 0 C15.97560976 19.02439024 15.97560976 19.02439024 13 22 C11.33382885 22.04063832 9.66611905 22.042721 8 22 C0 4.79841897 0 4.79841897 0 0 Z " fill="#dcbb87" transform="translate(135,99)"/>
<path d="M0 0 C1.98 0 3.96 0 6 0 C7.50290811 3.47791766 9.00183816 6.95753548 10.5 10.4375 C10.92925781 11.43072266 11.35851562 12.42394531 11.80078125 13.44726562 C12.40986328 14.86362305 12.40986328 14.86362305 13.03125 16.30859375 C13.40830078 17.18314209 13.78535156 18.05769043 14.17382812 18.95874023 C15 21 15 21 15 22 C13.02 22 11.04 22 9 22 C7.02 17.71 5.04 13.42 3 9 C2.195625 10.959375 1.39125 12.91875 0.5625 14.9375 C-1.875 20.875 -1.875 20.875 -3 22 C-4.98 22 -6.96 22 -9 22 C-6.03 14.74 -3.06 7.48 0 0 Z " fill="#dcbb87" transform="translate(82,99)"/>
<path d="M0 0 C6.27 0 12.54 0 19 0 C19 1.65 19 3.3 19 5 C16.69 5 14.38 5 12 5 C12 10.61 12 16.22 12 22 C10.35 22 8.7 22 7 22 C7 16.39 7 10.78 7 5 C4.69 5 2.38 5 0 5 C0 3.35 0 1.7 0 0 Z " fill="#dcbb87" transform="translate(98,99)"/>
<path d="M0 0 C4.95 0 9.9 0 15 0 C15 1.65 15 3.3 15 5 C11.7 5 8.4 5 5 5 C5 5.99 5 6.98 5 8 C8.96 8 12.92 8 17 8 C17 9.65 17 11.3 17 13 C11.39 13 5.78 13 0 13 C0 8.71 0 4.42 0 0 Z " fill="#dcbb87" transform="translate(163,108)"/>
<path d="M0 0 C4.95 0 9.9 0 15 0 C15 1.65 15 3.3 15 5 C11.7 5 8.4 5 5 5 C5 5.99 5 6.98 5 8 C8.96 8 12.92 8 17 8 C17 9.65 17 11.3 17 13 C11.39 13 5.78 13 0 13 C0 8.71 0 4.42 0 0 Z " fill="#dcbb87" transform="translate(52,108)"/>
<path d="M0 0 C1.98 0 3.96 0 6 0 C6 7.26 6 14.52 6 22 C4.02 22 2.04 22 0 22 C0 14.74 0 7.48 0 0 Z " fill="#dcbb87" transform="translate(123,99)"/>
<path d="M0 0 C5.61 0 11.22 0 17 0 C17 1.65 17 3.3 17 5 C11.39 5 5.78 5 0 5 C0 3.35 0 1.7 0 0 Z " fill="#dcbb87" transform="translate(52,99)"/>
<path d="M0 0 C5.28 0 10.56 0 16 0 C16 1.65 16 3.3 16 5 C10.72 5 5.44 5 0 5 C0 3.35 0 1.7 0 0 Z " fill="#dcbb87" transform="translate(163,99)"/>
<path d="M0 0 C0.86625 0.2784375 0.86625 0.2784375 1.75 0.5625 C4.20692525 1.04023546 5.64397534 0.75729364 8 0 C8 2.64 8 5.28 8 8 C7.4225 7.814375 6.845 7.62875 6.25 7.4375 C3.79307475 6.95976454 2.35602466 7.24270636 0 8 C0 5.36 0 2.72 0 0 Z " fill="#dcbb87" transform="translate(145,128)"/>
<path d="M0 0 C3.0625 -0.25 3.0625 -0.25 6 0 C7 1 7 1 7.125 4 C7 7 7 7 6 8 C4.00041636 8.04080783 1.99954746 8.04254356 0 8 C-1.125 5.6875 -1.125 5.6875 -2 3 C-1.34 2.01 -0.68 1.02 0 0 Z M2 2 C2 3.32 2 4.64 2 6 C2.99 5.67 3.98 5.34 5 5 C4.67 4.01 4.34 3.02 4 2 C3.34 2 2.68 2 2 2 Z " fill="#dcbb87" transform="translate(107,128)"/>
<path d="M0 0 C3.0625 -0.25 3.0625 -0.25 6 0 C7 1 7 1 7.125 4 C7 7 7 7 6 8 C4.00041636 8.04080783 1.99954746 8.04254356 0 8 C-1.125 5.6875 -1.125 5.6875 -2 3 C-1.34 2.01 -0.68 1.02 0 0 Z M2 2 C2 3.32 2 4.64 2 6 C2.99 5.67 3.98 5.34 5 5 C4.67 4.01 4.34 3.02 4 2 C3.34 2 2.68 2 2 2 Z " fill="#dcbb87" transform="translate(40,128)"/>
<path d="M0 0 C1.4540625 0.0309375 1.4540625 0.0309375 2.9375 0.0625 C2.9375 2.7025 2.9375 5.3425 2.9375 8.0625 C0.0625 8.1875 0.0625 8.1875 -3.0625 8.0625 C-3.7225 7.4025 -4.3825 6.7425 -5.0625 6.0625 C-4.33395709 0.0884481 -4.33395709 0.0884481 0 0 Z M-2.0625 2.0625 C-2.0625 3.3825 -2.0625 4.7025 -2.0625 6.0625 C-1.0725 5.7325 -0.0825 5.4025 0.9375 5.0625 C0.2775 5.0625 -0.3825 5.0625 -1.0625 5.0625 C-1.0625 4.4025 -1.0625 3.7425 -1.0625 3.0625 C-0.4025 2.7325 0.2575 2.4025 0.9375 2.0625 C-0.0525 2.0625 -1.0425 2.0625 -2.0625 2.0625 Z " fill="#dcbb87" transform="translate(124.0625,127.9375)"/>
<path d="M0 0 C0.99 0 1.98 0 3 0 C3 1.98 3 3.96 3 6 C3.66 6 4.32 6 5 6 C5 4.02 5 2.04 5 0 C5.99 0 6.98 0 8 0 C8.125 5.75 8.125 5.75 7 8 C5.00045254 8.04254356 2.99958364 8.04080783 1 8 C0 7 0 7 -0.0625 3.4375 C-0.041875 2.303125 -0.02125 1.16875 0 0 Z " fill="#dcbb87" transform="translate(52,128)"/>
<path d="M0 0 C1.98 0 3.96 0 6 0 C6.59732819 2.76264289 7 5.16032769 7 8 C6.401875 7.814375 5.80375 7.62875 5.1875 7.4375 C2.83591238 6.77906313 2.83591238 6.77906313 0 8 C0 5.36 0 2.72 0 0 Z M2 2 C2 2.66 2 3.32 2 4 C2.66 4 3.32 4 4 4 C4 3.34 4 2.68 4 2 C3.34 2 2.68 2 2 2 Z " fill="#dcbb87" transform="translate(65,128)"/>
<path d="M0 0 C0.99 0 1.98 0 3 0 C4.25664978 2.90600261 5 4.79604584 5 8 C2.36 8 -0.28 8 -3 8 C-2.45276317 4.62537285 -1.9451 2.91765 0 0 Z " fill="#dcbb87" transform="translate(135,128)"/>
<path d="M0 0 C1.65 0 3.3 0 5 0 C5.98120464 3.05263664 5.98120464 4.94736336 5 8 C3.35 8 1.7 8 0 8 C-1.43088528 5.13822943 -0.59991697 3.06624227 0 0 Z " fill="#dcbb87" transform="translate(84,128)"/>
<path d="M0 0 C0.7425 0.185625 1.485 0.37125 2.25 0.5625 C5.22840916 1.22052711 5.22840916 1.22052711 9 0 C8.01 2.64 7.02 5.28 6 8 C5.01 8 4.02 8 3 8 C2.01 5.36 1.02 2.72 0 0 Z " fill="#dcbb87" transform="translate(26,128)"/>
<path d="M0 0 C0.99 0 1.98 0 3 0 C3 1.98 3 3.96 3 6 C3.99 6 4.98 6 6 6 C6 6.66 6 7.32 6 8 C4.02 8 2.04 8 0 8 C0 5.36 0 2.72 0 0 Z " fill="#dcbb87" transform="translate(95,128)"/>
</svg>