<svg version="1.1" xmlns="http://www.w3.org/2000/svg" width="180px" height="164px" transform="rotate(0) scale(1, 1)">
<path d="M0 0 C0 8.25 0 16.5 0 25 C-2.6420763 26.52427479 -5.28415918 28.04853816 -7.92626953 29.57275391 C-10.24766696 30.91208486 -12.56897208 32.25157437 -14.89013672 33.59130859 C-20.40933104 36.77659352 -25.92920255 39.96066009 -31.4538269 43.13652039 C-33.21508739 44.14906782 -34.97600218 45.16221387 -36.73681641 46.17553711 C-38.94674694 47.44706725 -41.15732879 48.71746628 -43.36865234 49.98657227 C-45.36416476 51.13539329 -47.3504124 52.30051948 -49.32519531 53.48461914 C-52 55 -52 55 -54.47949219 55.98217773 C-56.99412171 57.07849147 -58.32113553 57.81386511 -60 60 C-61.13343634 65.27372519 -61.07525429 70.45331917 -61 75.8125 C-61.00809604 77.28322753 -61.01977713 78.75393997 -61.03515625 80.22460938 C-61.06493332 83.81716611 -61.04565503 87.40751963 -61 91 C-63.9719385 89.87548273 -66.33440687 88.77706209 -69 87 C-69.79749236 82.57035715 -69.8555884 78.10835501 -69.94042969 73.61669922 C-69.97988567 72.13192549 -70.04790294 70.64761475 -70.14550781 69.16552734 C-70.47441322 64.1592291 -70.50003349 59.8243435 -69 55 C-65.72426299 52.18857068 -62.77077049 50.62612591 -58.90820312 48.71435547 C-55.93307167 47.31156052 -55.93307167 47.31156052 -54.98242188 45.00048828 C-54.82273925 42.85740599 -54.92679955 40.99830423 -55.25 38.875 C-55.63277868 35.87561483 -55.52322226 34.10742979 -55 31 C-52.34887684 28.39387804 -49.25338908 26.75921791 -46 25 C-45.1553418 24.50838379 -44.31068359 24.01676758 -43.44042969 23.51025391 C-40.72709113 21.93347455 -37.99225625 20.40088167 -35.25 18.875 C-33.23011482 17.74412151 -31.21059235 16.61259498 -29.19140625 15.48046875 C-28.17062988 14.9086084 -27.14985352 14.33674805 -26.09814453 13.74755859 C-23.02215091 12.01249458 -19.96009168 10.25527678 -16.90234375 8.48828125 C-15.94102539 7.93350098 -14.97970703 7.3787207 -13.98925781 6.80712891 C-12.14950501 5.74361199 -10.31155077 4.67697647 -8.47558594 3.60693359 C-7.24050293 2.894646 -7.24050293 2.894646 -5.98046875 2.16796875 C-5.25754639 1.74797607 -4.53462402 1.3279834 -3.78979492 0.89526367 C-2 0 -2 0 0 0 Z M-14.36328125 16.03515625 C-15.47896484 16.68033203 -16.59464844 17.32550781 -17.74414062 17.99023438 C-18.93361422 18.68095434 -20.12306726 19.37170969 -21.3125 20.0625 C-22.44751953 20.71927734 -23.58253906 21.37605469 -24.75195312 22.05273438 C-27.03444925 23.37431656 -29.31424409 24.70057517 -31.59130859 26.03149414 C-33.88128295 27.35394531 -36.18682332 28.64976966 -38.50634766 29.91967773 C-39.59608887 30.52368408 -40.68583008 31.12769043 -41.80859375 31.75 C-43.28090454 32.54857422 -43.28090454 32.54857422 -44.78295898 33.36328125 C-47.12181969 34.7797167 -47.12181969 34.7797167 -47.74633789 36.98046875 C-47.82856957 39.14618859 -47.82856957 39.14618859 -47 42 C-42.95974257 40.50339959 -39.3350453 38.58383451 -35.59765625 36.4453125 C-34.99747177 36.10249237 -34.39728729 35.75967224 -33.77891541 35.40646362 C-32.51488912 34.68349698 -31.25176572 33.95894969 -29.98950195 33.23291016 C-28.07408361 32.13165988 -26.15546611 31.03615872 -24.23632812 29.94140625 C-19.10084788 27.00052187 -19.10084788 27.00052187 -14 24 C-12.88294678 23.3385498 -11.76589355 22.67709961 -10.61499023 21.99560547 C-9.75204346 21.33705566 -8.88909668 20.67850586 -8 20 C-7.49874717 16.33142278 -7.49874717 16.33142278 -8 13 C-10.17647931 13 -12.57438037 14.99860355 -14.36328125 16.03515625 Z " fill="#dcbb87" transform="translate(124,0)"/>
<path d="M0 0 C0.26233625 4.04042673 0.42150491 8.07866481 0.5625 12.125 C0.63791016 13.26710938 0.71332031 14.40921875 0.79101562 15.5859375 C1.00749269 23.86017194 1.00749269 23.86017194 -1.74902344 26.97875977 C-4.09394069 28.56742349 -6.43714004 29.79794842 -9 31 C-10.38721976 31.78786293 -11.77025473 32.58315236 -13.1484375 33.38671875 C-14.55642419 34.15523725 -15.9653057 34.92211826 -17.375 35.6875 C-18.13159912 36.11264893 -18.88819824 36.53779785 -19.66772461 36.97583008 C-23.83956627 39.31583961 -28.03295479 41.51289034 -32.35546875 43.5625 C-40.918014 47.28988869 -40.918014 47.28988869 -46.91894531 53.94921875 C-47.96807256 58.36093332 -47.69476404 62.52330299 -47 67 C-49.9719385 65.87548273 -52.33440687 64.77706209 -55 63 C-57.45059468 53.00522263 -57.86627096 40.91889206 -55 31 C-50.07355532 24.3314717 -42.02606601 21.59758754 -34.57373047 18.56005859 C-28.91862392 16.0914064 -23.70273463 12.93569015 -18.4130249 9.77493286 C-15.67219121 8.1469236 -12.90282072 6.5689471 -10.13671875 4.984375 C-1.45810481 0 -1.45810481 0 0 0 Z M-15.49609375 17.03515625 C-16.61306641 17.68033203 -17.73003906 18.32550781 -18.88085938 18.99023438 C-19.75907349 19.50203247 -19.75907349 19.50203247 -20.6550293 20.02416992 C-22.39666238 21.03871115 -24.14262096 22.04581537 -25.88867188 23.05273438 C-28.16204156 24.37053576 -30.42826539 25.70074513 -32.68701172 27.04345703 C-34.87194447 28.33380715 -37.07681867 29.59104779 -39.30126953 30.81201172 C-42.07696311 32.40339751 -44.60302054 33.88013142 -47 36 C-47.92339574 39.8028229 -47.92339574 39.8028229 -47 43 C-36.78918621 37.67908102 -26.82227613 32.02853639 -16.9296875 26.13867188 C-13.97149368 24.39309799 -10.98699689 22.69574302 -8 21 C-8 18.69 -8 16.38 -8 14 C-11.0233317 14 -12.89264725 15.5283136 -15.49609375 17.03515625 Z " fill="#dcbb87" transform="translate(124,32)"/>
<path d="M0 0 C13.21126761 -0.49387916 13.21126761 -0.49387916 16.92578125 1.83203125 C19 4 19 4 19.5 6.9375 C18.95663198 10.26562912 17.93185285 12.26320847 16 15 C17.32 17.31 18.64 19.62 20 22 C16.75 22.375 16.75 22.375 13 22 C10.75 19.0625 10.75 19.0625 9 16 C8.01 15.67 7.02 15.34 6 15 C6 17.31 6 19.62 6 22 C4.02 22 2.04 22 0 22 C0 14.74 0 7.48 0 0 Z M6 5 C6 6.65 6 8.3 6 10 C7.98 10 9.96 10 12 10 C12.59070014 8.05396726 12.59070014 8.05396726 13 6 C11.87465895 4.64381501 11.87465895 4.64381501 8.9375 4.9375 C7.968125 4.958125 6.99875 4.97875 6 5 Z " fill="#dcbb87" transform="translate(26,127)"/>
<path d="M0 0 C0.96808594 -0.01417969 1.93617187 -0.02835937 2.93359375 -0.04296875 C5.5625 0.1875 5.5625 0.1875 8.5625 2.1875 C7.9025 3.5075 7.2425 4.8275 6.5625 6.1875 C3.22916667 6.1875 -0.10416667 6.1875 -3.4375 6.1875 C-5.26410197 10.30898343 -5.26410197 10.30898343 -4.5625 14.5625 C-4.19125 15.09875 -3.82 15.635 -3.4375 16.1875 C0.0844721 16.26754482 3.18231469 16.22755702 6.5625 15.1875 C7.2225 16.5075 7.8825 17.8275 8.5625 19.1875 C4.69601344 22.55393287 1.95753981 22.69036616 -3.0234375 22.55078125 C-6.40596396 22.04176028 -8.16072234 20.68461098 -10.4375 18.1875 C-12.28612688 14.49024625 -11.91337094 10.22288558 -11.4375 6.1875 C-8.23120737 0.95055538 -5.93541445 0.03941178 0 0 Z " fill="#dcbb87" transform="translate(11.4375,126.8125)"/>
<path d="M0 0 C1.98 0 3.96 0 6 0 C7.65 3.96 9.3 7.92 11 12 C12.65 8.04 14.3 4.08 16 0 C17.98 0 19.96 0 22 0 C21.06666423 2.54326447 20.12848392 5.08456588 19.1875 7.625 C18.79594727 8.69427734 18.79594727 8.69427734 18.39648438 9.78515625 C16.83035219 14.00017866 15.09518176 18.01097526 13 22 C11.35 22 9.7 22 8 22 C6.65791246 18.89954577 5.32786246 15.79407011 4 12.6875 C3.6184375 11.80642578 3.236875 10.92535156 2.84375 10.01757812 C2.4828125 9.17001953 2.121875 8.32246094 1.75 7.44921875 C1.41484375 6.66893311 1.0796875 5.88864746 0.734375 5.0847168 C0 3 0 3 0 0 Z " fill="#dcbb87" transform="translate(135,127)"/>
<path d="M0 0 C1.98 0 3.96 0 6 0 C7.50605402 3.28893003 9.00380532 6.58157446 10.5 9.875 C10.92925781 10.81214844 11.35851562 11.74929687 11.80078125 12.71484375 C12.40986328 14.05869141 12.40986328 14.05869141 13.03125 15.4296875 C13.40830078 16.25710449 13.78535156 17.08452148 14.17382812 17.93701172 C15 20 15 20 15 22 C13.02 22 11.04 22 9 22 C7.02 17.71 5.04 13.42 3 9 C1.02 13.29 -0.96 17.58 -3 22 C-4.65 22 -6.3 22 -8 22 C-7.29807915 17.06678166 -5.36469225 12.74025318 -3.4375 8.1875 C-3.10814453 7.39923828 -2.77878906 6.61097656 -2.43945312 5.79882812 C-1.63041094 3.86416204 -0.81576148 1.93184247 0 0 Z " fill="#dcbb87" transform="translate(82,127)"/>
<path d="M0 0 C4.95 0 9.9 0 15 0 C15 1.65 15 3.3 15 5 C11.7 5 8.4 5 5 5 C5 6.32 5 7.64 5 9 C8.96 9 12.92 9 17 9 C17 10.65 17 12.3 17 14 C11.39 14 5.78 14 0 14 C0 9.38 0 4.76 0 0 Z " fill="#dcbb87" transform="translate(163,135)"/>
<path d="M0 0 C4.95 0 9.9 0 15 0 C15 1.65 15 3.3 15 5 C11.7 5 8.4 5 5 5 C5 6.32 5 7.64 5 9 C8.96 9 12.92 9 17 9 C17 10.65 17 12.3 17 14 C11.39 14 5.78 14 0 14 C0 9.38 0 4.76 0 0 Z " fill="#dcbb87" transform="translate(52,135)"/>
<path d="M0 0 C6.27 0 12.54 0 19 0 C19 1.65 19 3.3 19 5 C16.69 5 14.38 5 12 5 C12 10.61 12 16.22 12 22 C10.35 22 8.7 22 7 22 C7 16.39 7 10.78 7 5 C4.69 5 2.38 5 0 5 C0 3.35 0 1.7 0 0 Z " fill="#dcbb87" transform="translate(98,127)"/>
<path d="M0 0 C1.98 0 3.96 0 6 0 C6 7.26 6 14.52 6 22 C4.02 22 2.04 22 0 22 C0 14.74 0 7.48 0 0 Z " fill="#dcbb87" transform="translate(123,127)"/>
<path d="M0 0 C5.61 0 11.22 0 17 0 C17 1.65 17 3.3 17 5 C11.39 5 5.78 5 0 5 C0 3.35 0 1.7 0 0 Z " fill="#dcbb87" transform="translate(52,127)"/>
<path d="M0 0 C5.28 0 10.56 0 16 0 C16 1.65 16 3.3 16 5 C10.72 5 5.44 5 0 5 C0 3.35 0 1.7 0 0 Z " fill="#dcbb87" transform="translate(163,127)"/>
<path d="M0 0 C0.86625 0.2784375 0.86625 0.2784375 1.75 0.5625 C4.20692525 1.04023546 5.64397534 0.75729364 8 0 C8 2.64 8 5.28 8 8 C7.4225 7.814375 6.845 7.62875 6.25 7.4375 C3.79307475 6.95976454 2.35602466 7.24270636 0 8 C0 5.36 0 2.72 0 0 Z " fill="#dcbb87" transform="translate(145,156)"/>
<path d="M0 0 C2.31 0 4.62 0 7 0 C7.04241723 2.33294775 7.04092937 4.66702567 7 7 C6 8 6 8 3.5625 8.1875 C1 8 1 8 -1 6 C-0.625 2.875 -0.625 2.875 0 0 Z M2 2 C2.33 2.99 2.66 3.98 3 5 C3 4.34 3 3.68 3 3 C3.66 2.67 4.32 2.34 5 2 C4.01 2 3.02 2 2 2 Z " fill="#dcbb87" transform="translate(120,156)"/>
<path d="M0 0 C3.0625 -0.25 3.0625 -0.25 6 0 C7 1 7 1 7.0625 4.0625 C7.041875 5.031875 7.02125 6.00125 7 7 C4.69 7.33 2.38 7.66 0 8 C-1.125 5.6875 -1.125 5.6875 -2 3 C-1.34 2.01 -0.68 1.02 0 0 Z M2 2 C2 3.32 2 4.64 2 6 C2.99 5.67 3.98 5.34 5 5 C4.67 4.01 4.34 3.02 4 2 C3.34 2 2.68 2 2 2 Z " fill="#dcbb87" transform="translate(107,156)"/>
<path d="M0 0 C1.98 0 3.96 0 6 0 C6.59732819 2.76264289 7 5.16032769 7 8 C6.401875 7.814375 5.80375 7.62875 5.1875 7.4375 C2.83591238 6.77906313 2.83591238 6.77906313 0 8 C0 5.36 0 2.72 0 0 Z " fill="#dcbb87" transform="translate(65,156)"/>
<path d="M0 0 C3 0.125 3 0.125 4 1.125 C4.1875 3.5625 4.1875 3.5625 4 6.125 C2 8.125 2 8.125 -0.5 8.4375 C-1.7375 8.2828125 -1.7375 8.2828125 -3 8.125 C-5 5.125 -5 5.125 -4.6875 3 C-3.57393491 -0.03699569 -3.43088098 0.14295337 0 0 Z M-2 2.125 C-1.67 3.445 -1.34 4.765 -1 6.125 C-0.34 6.125 0.32 6.125 1 6.125 C1.33 5.135 1.66 4.145 2 3.125 C0.68 2.795 -0.64 2.465 -2 2.125 Z " fill="#dcbb87" transform="translate(43,155.875)"/>
<path d="M0 0 C0.99 0 1.98 0 3 0 C3 1.98 3 3.96 3 6 C3.66 6 4.32 6 5 6 C5 4.02 5 2.04 5 0 C5.99 0 6.98 0 8 0 C7.125 6.875 7.125 6.875 6 8 C4.33382885 8.04063832 2.66611905 8.042721 1 8 C-0.35439668 5.29120665 -0.06501451 2.99066732 0 0 Z " fill="#dcbb87" transform="translate(52,156)"/>
<path d="M0 0 C1.98 0 3.96 0 6 0 C6 3.11257569 5.82638376 5.10765685 5 8 C3.35 8 1.7 8 0 8 C0 5.33333333 0 2.66666667 0 0 Z " fill="#dcbb87" transform="translate(84,156)"/>
<path d="M0 0 C0.99 0 1.98 0 3 0 C4.25664978 2.90600261 5 4.79604584 5 8 C4.236875 7.814375 3.47375 7.62875 2.6875 7.4375 C-0.08967375 6.77180827 -0.08967375 6.77180827 -3 8 C-2.45276317 4.62537285 -1.9451 2.91765 0 0 Z " fill="#dcbb87" transform="translate(135,156)"/>
<path d="M0 0 C2.97 0 5.94 0 9 0 C8.01 2.64 7.02 5.28 6 8 C5.01 8 4.02 8 3 8 C2.01 5.36 1.02 2.72 0 0 Z " fill="#dcbb87" transform="translate(26,156)"/>
<path d="M0 0 C0.99 0 1.98 0 3 0 C3 1.98 3 3.96 3 6 C3.99 6 4.98 6 6 6 C6 6.66 6 7.32 6 8 C4.02 8 2.04 8 0 8 C0 5.36 0 2.72 0 0 Z " fill="#dcbb87" transform="translate(95,156)"/>
</svg>